<svg version="1.1" xmlns="http://www.w3.org/2000/svg" viewBox="0 0 1344 968" width="4032" height="2904">
  <!-- svg-source:excalidraw -->
  
  <defs>
    <style>
      @font-face {
        font-family: "Virgil";
        src: url("https://excalidraw.com/Virgil.woff2");
      }
      @font-face {
        font-family: "Cascadia";
        src: url("https://excalidraw.com/Cascadia.woff2");
      }
    </style>
  </defs>
  <rect x="0" y="0" width="1344" height="968" fill="#ffffff"></rect><g stroke-linecap="round" transform="translate(10.999999999999886 256) rotate(0 368.00000000000006 267)"><path d="M-0.96 1.2 C182.63 -0.18, 367.65 -1.87, 735.03 -0.43 M-0.46 -0.37 C198.78 4.49, 398.47 3.95, 735.8 0.29 M735.34 -0.82 C736.43 207.25, 737.4 413.32, 735.13 534.58 M736.19 -0.01 C739.32 140.53, 738.42 281.54, 735.26 534.64 M736.83 533.19 C513.8 539.14, 290.6 538.31, -1.13 533.1 M736.36 533.79 C510.35 534.4, 285.09 534.81, -0.8 534.73 M-1.08 533.37 C4.37 353.18, 5.3 168.82, -0.52 0.11 M0.66 534.46 C4.12 423.75, 4.27 311.85, 0.75 0.74" stroke="#000000" stroke-width="1" fill="none"></path></g><g transform="translate(11 202) rotate(0 371 25)"><text x="371" y="18" font-family="Virgil, Segoe UI Emoji" font-size="20px" fill="#000000" text-anchor="middle" style="white-space: pre;" direction="ltr">Swarm Machine</text><text x="371" y="43" font-family="Virgil, Segoe UI Emoji" font-size="20px" fill="#000000" text-anchor="middle" style="white-space: pre;" direction="ltr">(Multiple swarm machines can be used at the same time to increase scale)</text></g><g stroke-linecap="round" transform="translate(822 268) rotate(0 256 253.5)"><path d="M0.17 -0.5 C193.43 0.83, 384.66 1.39, 512.83 -0.5 M-0.51 0.41 C143.47 -2.42, 287.61 -2.23, 512.35 0.75 M512.94 -0.02 C514.01 169.19, 511.7 338.36, 513.48 506.45 M511.49 -0.02 C516.24 163.11, 515.57 327.23, 512.58 506.56 M510.74 507.45 C340.27 503.35, 168.36 502.42, -0.43 507.84 M512.79 507.03 C394.97 509.6, 277.16 508.46, 0.35 507.26 M0.26 507.07 C0.03 340.45, 0.29 176.65, 0.65 -0.78 M-0.65 507.07 C0.93 380.83, 0.35 254.84, -0.06 -0.4" stroke="#000000" stroke-width="1" fill="none"></path></g><g transform="translate(1019 238) rotate(0 57.5 12.5)"><text x="0" y="18" font-family="Virgil, Segoe UI Emoji" font-size="20px" fill="#000000" text-anchor="start" style="white-space: pre;" direction="ltr">Hub Cluster</text></g><g stroke-linecap="round" transform="translate(1033 316) rotate(0 47 49.5)"><path d="M-1.18 1.58 C28.45 0.85, 50.1 0.74, 96.08 -3.38 M0.98 -1.69 C30.92 1.59, 59.83 3.1, 93.42 1.13 M95.59 3.82 C91.93 22.91, 98.59 49.18, 93.07 101.11 M92.27 0.81 C91.54 21.71, 93.65 40.66, 92.44 99.7 M97.61 97.24 C73.53 97.12, 48.99 101.03, -2.84 101.71 M93.77 100.77 C58.95 101.54, 22.09 99.12, -0.81 97.39 M1.15 99.43 C-0.81 72.41, 2.66 43.63, -0.77 -0.86 M1.15 99.69 C0.03 77.38, -2.3 54.69, -1.34 -1.49" stroke="#000000" stroke-width="1" fill="none"></path></g><g transform="translate(859 282) rotate(0 225 12.5)"><text x="0" y="18" font-family="Virgil, Segoe UI Emoji" font-size="20px" fill="#000000" text-anchor="start" style="white-space: pre;" direction="ltr">Infrastructure Operator (Assisted Installer)</text></g><g stroke-linecap="round" transform="translate(789 334) rotate(0 40.5 63)"><path d="M1.03 -0.99 C27.39 -2, 54.06 2.03, 77.07 -0.33 M83.33 -1.6 C81.73 34.53, 78.86 65.64, 77.63 126.09 M83.57 127.03 C54.87 125.46, 32.71 126.18, -2.64 123.21 M-2.69 128.86 C3.11 89.16, -0.99 48.13, -2.15 2.01" stroke="#2b8a3e" stroke-width="1.5" fill="none" stroke-dasharray="8 9"></path></g><g transform="translate(794 384.5) rotate(0 35.5 12.5)"><text x="35.5" y="18" font-family="Virgil, Segoe UI Emoji" font-size="20px" fill="#2b8a3e" text-anchor="middle" style="white-space: pre;" direction="ltr">Route</text></g><g stroke-linecap="round"><g transform="translate(868 402) rotate(0 81.94235421568158 -19.91965483576061)"><path d="M-2.18 0.34 C25.53 -6.63, 138.59 -33.16, 166.06 -40.18" stroke="#000000" stroke-width="1.5" fill="none" stroke-dasharray="8 9"></path></g></g><g stroke-linecap="round" transform="translate(783 598) rotate(0 38.5 39.5)"><path d="M0.31 1.3 C18.12 -1.91, 46.54 0.43, 74.34 -0.33 M80.36 2.19 C81.83 24.17, 75.37 54.73, 77.67 78.36 M78.17 77.57 C61.87 78.93, 41.31 80.76, -1.17 76.84 M-0.47 78.9 C0.39 51.91, -3.54 34.11, 3.36 -3.28" stroke="#364fc7" stroke-width="1.5" fill="none" stroke-dasharray="8 9"></path></g><g transform="translate(788 612.5) rotate(0 33.5 25)"><text x="33.5" y="18" font-family="Virgil, Segoe UI Emoji" font-size="20px" fill="#364fc7" text-anchor="middle" style="white-space: pre;" direction="ltr">K8s </text><text x="33.5" y="43" font-family="Virgil, Segoe UI Emoji" font-size="20px" fill="#364fc7" text-anchor="middle" style="white-space: pre;" direction="ltr">API</text></g><g stroke-linecap="round" transform="translate(358 305) rotate(0 172 166.5)"><path d="M2.46 0.26 C138.37 -6.4, 271.44 -2.55, 343.4 2.14 M346.01 0.69 C343.18 71.94, 343.67 138.06, 346.32 331.96 M344.29 334.72 C208.6 339.62, 74.15 336.46, 0.85 333.62 M-0.66 332.57 C-2.58 253.75, -2.46 172.66, -2.27 0.35" stroke="#000000" stroke-width="1.5" fill="none" stroke-dasharray="8 9"></path></g><g transform="translate(496 272) rotate(0 30 12.5)"><text x="0" y="18" font-family="Virgil, Segoe UI Emoji" font-size="20px" fill="#000000" text-anchor="start" style="white-space: pre;" direction="ltr">Swarm</text></g><g stroke-linecap="round" transform="translate(598 715) rotate(0 56.5 20.5)"><path d="M-1.78 -2.08 C36.21 -4.05, 79.56 1.44, 114.56 -2.93 M115.11 -2.06 C110.51 14.96, 116.12 23.46, 113.95 42.41 M114.24 37.89 C74.98 39.08, 32.78 37.8, 0.41 37.15 M0.84 44.26 C-2.55 25.46, 1.52 9.29, 3.98 1.71" stroke="#364fc7" stroke-width="1.5" fill="none" stroke-dasharray="8 9"></path></g><g transform="translate(614 721) rotate(0 49 12.5)"><text x="0" y="18" font-family="Virgil, Segoe UI Emoji" font-size="20px" fill="#364fc7" text-anchor="start" style="white-space: pre;" direction="ltr">kubeconfig</text></g><g stroke-linecap="round" transform="translate(336 702) rotate(0 190 32.5)"><path d="M16.25 0 M16.25 0 C148.59 1.93, 281.63 0.58, 363.75 0 M363.75 0 C372.91 2.81, 382.72 2.92, 380 16.25 M380 16.25 C383.37 22.08, 378.86 31.82, 380 48.75 M380 48.75 C381.73 57.89, 372.25 63.68, 363.75 65 M363.75 65 C274.61 66.95, 181.06 66.92, 16.25 65 M16.25 65 C8.96 67.76, -2.54 61.61, 0 48.75 M0 48.75 C2.22 38.5, 1.08 22.05, 0 16.25 M0 16.25 C3.06 3.01, 9.12 -2.2, 16.25 0" stroke="#000000" stroke-width="1.5" fill="none" stroke-dasharray="8 9"></path></g><g transform="translate(460 675) rotate(0 64 12.5)"><text x="0" y="18" font-family="Virgil, Segoe UI Emoji" font-size="20px" fill="#000000" text-anchor="start" style="white-space: pre;" direction="ltr">Configuration</text></g><g stroke-linecap="round" transform="translate(344 713) rotate(0 55.5 24)"><path d="M12 0 M12 0 C46.05 -2.02, 72.18 2.35, 99 0 M99 0 C109.32 -2.29, 110.67 6.94, 111 12 M111 12 C107.28 17.41, 111.43 23.47, 111 36 M111 36 C110.06 43.03, 106.86 49.22, 99 48 M99 48 C72.25 45.3, 48.63 51.08, 12 48 M12 48 C4.3 45.62, 2.18 40.01, 0 36 M0 36 C-1.8 26.63, 2.54 14.95, 0 12 M0 12 C3.01 5.31, 1.44 -3.41, 12 0" stroke="#343a40" stroke-width="1.5" fill="none" stroke-dasharray="1.5 7"></path></g><g transform="translate(355 723) rotate(0 46.5 12.5)"><text x="0" y="18" font-family="Virgil, Segoe UI Emoji" font-size="20px" fill="#000000" text-anchor="start" style="white-space: pre;" direction="ltr">test plan</text></g><g stroke-linecap="round" transform="translate(460 709) rotate(0 60.5 25.5)"><path d="M12.75 0 M12.75 0 C39.18 4.16, 63.47 -1.84, 108.25 0 M108.25 0 C116.95 3.02, 119.43 6.52, 121 12.75 M121 12.75 C119.65 20.83, 120.52 28.71, 121 38.25 M121 38.25 C121.44 43.76, 112.9 50.76, 108.25 51 M108.25 51 C76.23 53.69, 39.7 54.17, 12.75 51 M12.75 51 C6.59 51.43, -2.98 49.84, 0 38.25 M0 38.25 C-3.67 34.5, 0.91 28.84, 0 12.75 M0 12.75 C-3.94 5.35, 0.37 -3.72, 12.75 0" stroke="#2b8a3e" stroke-width="1.5" fill="none" stroke-dasharray="8 9"></path></g><g transform="translate(472 726.1136363636364) rotate(0 52.5 9.943181818181813)"><text x="0" y="13.886363636363651" font-family="Virgil, Segoe UI Emoji" font-size="15.909090909090905px" fill="#2b8a3e" text-anchor="start" style="white-space: pre;" direction="ltr">service config</text></g><g transform="translate(1038 340.5) rotate(0 42 25)"><text x="42" y="18" font-family="Virgil, Segoe UI Emoji" font-size="20px" fill="#2b8a3e" text-anchor="middle" style="white-space: pre;" direction="ltr">Assisted</text><text x="42" y="43" font-family="Virgil, Segoe UI Emoji" font-size="20px" fill="#2b8a3e" text-anchor="middle" style="white-space: pre;" direction="ltr">Service</text></g><g stroke-linecap="round" transform="translate(1021 411.5) rotate(0 61 30)"><path d="M1.39 0.59 C28.4 3.25, 57.88 -2.21, 121.04 3.87 M-0.35 1.53 C26.91 -2.59, 56.35 -2.54, 122.94 -1.41 M124.53 2.77 C124.95 14.37, 122.85 28.3, 121.95 62.75 M120.53 0.6 C124.54 16.21, 123.54 28.46, 123.48 61.66 M124.5 59.94 C96.41 63.99, 68.14 61.89, -1.04 56.66 M120.1 59.83 C92.27 60.83, 66.22 59.14, -0.71 60.26 M2.72 61.02 C-0.16 41.89, 1.99 29.31, -2.93 2.64 M-0.79 58.29 C0.99 46.24, 0.71 34.32, 0 -1.25" stroke="#000000" stroke-width="1" fill="none"></path></g><g transform="translate(1026 429) rotate(0 56 12.5)"><text x="56" y="18" font-family="Virgil, Segoe UI Emoji" font-size="20px" fill="#2b8a3e" text-anchor="middle" style="white-space: pre;" direction="ltr">Controllers</text></g><g stroke-linecap="round" transform="translate(862 521) rotate(0 226 117.5)"><path d="M58.75 0 M58.75 0 C191.93 -1.1, 326.3 1.25, 393.25 0 M393.25 0 C433.91 2.61, 454.25 20.01, 452 58.75 M452 58.75 C448.37 91.36, 452.46 121.82, 452 176.25 M452 176.25 C451.94 213.03, 430.13 234.67, 393.25 235 M393.25 235 C303.23 234.62, 214.93 237.63, 58.75 235 M58.75 235 C17.59 233.68, 3.4 219.29, 0 176.25 M0 176.25 C2.21 132.56, -3.01 79.82, 0 58.75 M0 58.75 C-2.94 20.09, 19.28 -2.52, 58.75 0" stroke="#364fc7" stroke-width="1.5" fill="none" stroke-dasharray="8 9"></path></g><g transform="translate(889 496) rotate(0 148.5 25)"><text x="0" y="18" font-family="Virgil, Segoe UI Emoji" font-size="20px" fill="#364fc7" text-anchor="start" style="white-space: pre;" direction="ltr">Custom Resources</text><text x="0" y="43" font-family="Virgil, Segoe UI Emoji" font-size="20px" fill="#364fc7" text-anchor="start" style="white-space: pre;" direction="ltr">swarm-&lt;timestamp&gt; namespace</text></g><g stroke-linecap="round" transform="translate(1194.5 481.5) rotate(0 38.5 39.5)"><path d="M-3.13 -1.1 C15.16 -3.11, 35.08 -2.55, 80.52 0.91 M78.33 1.39 C72.55 27.31, 72.65 47.69, 78.38 78.1 M78.74 76.06 C55.12 79.09, 35.73 76.14, 0.64 76.36 M-2.52 81.21 C-1.44 58.82, 1.34 30.53, 1.93 3.47" stroke="#364fc7" stroke-width="1.5" fill="none" stroke-dasharray="8 9"></path></g><g transform="translate(1199.5 496) rotate(0 33.5 25)"><text x="33.5" y="18" font-family="Virgil, Segoe UI Emoji" font-size="20px" fill="#364fc7" text-anchor="middle" style="white-space: pre;" direction="ltr">K8s </text><text x="33.5" y="43" font-family="Virgil, Segoe UI Emoji" font-size="20px" fill="#364fc7" text-anchor="middle" style="white-space: pre;" direction="ltr">API</text></g><g transform="translate(694 10) rotate(0 1 0)" stroke="none"><path fill="#2b8a3e" d="M 2.12,-0.66 Q 2.12,-0.66 2.15,-0.13 2.18,0.40 1.96,0.88 1.74,1.36 1.32,1.69 0.91,2.02 0.38,2.12 -0.13,2.21 -0.64,2.05 -1.14,1.90 -1.52,1.52 -1.90,1.14 -2.05,0.64 -2.21,0.13 -2.12,-0.38 -2.02,-0.91 -1.69,-1.32 -1.36,-1.74 -0.88,-1.96 -0.39,-2.18 0.13,-2.15 0.66,-2.11 1.11,-1.84 1.57,-1.56 1.84,-1.11 L 2.12,-0.66 Z"></path></g><g stroke-linecap="round"><g stroke-opacity="0.4" fill-opacity="0.4" transform="translate(521 643) rotate(0 -0.46592612403446765 20.062646754919513)"><path d="M-0.95 0.17 C-1.13 6.95, -0.96 34.21, -1.17 40.91 M0.75 -0.78 C0.5 5.64, -1.04 32.76, -1.68 39.26" stroke="#c92a2a" stroke-width="1" fill="none"></path></g><g stroke-opacity="0.4" fill-opacity="0.4" transform="translate(521 643) rotate(0 -0.46592612403446765 20.062646754919513)"><path d="M-6.84 21.38 C-3.99 25.25, -3.3 31.51, -0.92 38.33 M-6.45 20.37 C-5.18 25.25, -4.64 29.85, -0.87 38.63" stroke="#c92a2a" stroke-width="1" fill="none"></path></g><g stroke-opacity="0.4" fill-opacity="0.4" transform="translate(521 643) rotate(0 -0.46592612403446765 20.062646754919513)"><path d="M6.82 22.39 C5.71 25.86, 2.45 31.82, -0.92 38.33 M7.21 21.37 C4.79 26, 1.64 30.33, -0.87 38.63" stroke="#c92a2a" stroke-width="1" fill="none"></path></g></g><g stroke-linecap="round"><g stroke-opacity="0.4" fill-opacity="0.4" transform="translate(574.5912708928408 715.0000000000001) rotate(0 110.57356371088844 -127.11023810356863)"><path d="M0.23 -0.49 C36.86 -42.63, 184.31 -211.76, 220.92 -253.73" stroke="#2b8a3e" stroke-width="1.5" fill="none" stroke-dasharray="1.5 7"></path></g><g stroke-opacity="0.4" fill-opacity="0.4" transform="translate(574.5912708928408 715.0000000000001) rotate(0 110.57356371088844 -127.11023810356863)"><path d="M209.31 -225.56 C213.4 -238.4, 220.05 -249.69, 220.33 -253.44" stroke="#2b8a3e" stroke-width="1.5" fill="none" stroke-dasharray="1.5 5"></path></g><g stroke-opacity="0.4" fill-opacity="0.4" transform="translate(574.5912708928408 715.0000000000001) rotate(0 110.57356371088844 -127.11023810356863)"><path d="M193.84 -239.05 C203.97 -246.56, 216.76 -252.5, 220.33 -253.44" stroke="#2b8a3e" stroke-width="1.5" fill="none" stroke-dasharray="1.5 5"></path></g></g><g stroke-linecap="round"><g stroke-opacity="0.4" fill-opacity="0.4" transform="translate(701.398213578563 719) rotate(0 42.97836920703401 -41.45618185549972)"><path d="M1.13 1.11 C15.33 -12.75, 71.11 -69.99, 84.83 -84.03" stroke="#364fc7" stroke-width="1.5" fill="none" stroke-dasharray="1.5 7"></path></g><g stroke-opacity="0.4" fill-opacity="0.4" transform="translate(701.398213578563 719) rotate(0 42.97836920703401 -41.45618185549972)"><path d="M74.33 -56.31 C74.23 -65.96, 79.02 -72.26, 85.22 -83.79" stroke="#364fc7" stroke-width="1.5" fill="none" stroke-dasharray="1.5 5"></path></g><g stroke-opacity="0.4" fill-opacity="0.4" transform="translate(701.398213578563 719) rotate(0 42.97836920703401 -41.45618185549972)"><path d="M59.65 -70.64 C63.35 -76.63, 72.03 -79.13, 85.22 -83.79" stroke="#364fc7" stroke-width="1.5" fill="none" stroke-dasharray="1.5 5"></path></g></g><g stroke-linecap="round"><g stroke-opacity="0.4" fill-opacity="0.4" transform="translate(1143 450) rotate(0 26.14060683697471 15.032627601921547)"><path d="M-0.61 0.66 C8.23 5.41, 44.08 24.45, 52.89 29.41" stroke="#364fc7" stroke-width="1.5" fill="none" stroke-dasharray="1.5 7"></path></g><g stroke-opacity="0.4" fill-opacity="0.4" transform="translate(1143 450) rotate(0 26.14060683697471 15.032627601921547)"><path d="M24.32 26.42 C30.77 26.77, 40.98 29.22, 51.08 28.58" stroke="#364fc7" stroke-width="1.5" fill="none" stroke-dasharray="1.5 5"></path></g><g stroke-opacity="0.4" fill-opacity="0.4" transform="translate(1143 450) rotate(0 26.14060683697471 15.032627601921547)"><path d="M34.14 8.4 C37.91 13.86, 45.31 21.47, 51.08 28.58" stroke="#364fc7" stroke-width="1.5" fill="none" stroke-dasharray="1.5 5"></path></g></g><g stroke-opacity="0.4" fill-opacity="0.4" stroke-linecap="round" transform="translate(371 321) rotate(0 161 60.5)"><path d="M30.25 0 M30.25 0 C84.16 1.23, 136.2 0.31, 291.75 0 M30.25 0 C108.86 -1.47, 187.55 -1.37, 291.75 0 M291.75 0 C310.61 1.75, 323.53 8.63, 322 30.25 M291.75 0 C310.52 -0.23, 319.98 11.1, 322 30.25 M322 30.25 C320.35 49.8, 321.36 69.76, 322 90.75 M322 30.25 C322.28 50.25, 321.45 71.99, 322 90.75 M322 90.75 C320.25 109.5, 312.17 121.04, 291.75 121 M322 90.75 C322.3 110.07, 311.88 122.55, 291.75 121 M291.75 121 C205.51 119.86, 121.41 120.61, 30.25 121 M291.75 121 C196.53 120.02, 99.68 120.6, 30.25 121 M30.25 121 C11.05 122.37, 0.55 109.13, 0 90.75 M30.25 121 C7.82 122.95, -0.85 111.35, 0 90.75 M0 90.75 C0.63 70.67, 1.32 50.85, 0 30.25 M0 90.75 C-0.94 74.85, -1.38 60.6, 0 30.25 M0 30.25 C1.39 11.21, 10.16 -0.4, 30.25 0 M0 30.25 C1.84 10.54, 8.03 1.5, 30.25 0" stroke="#000000" stroke-width="1" fill="none"></path></g><g stroke-linecap="round"><g stroke-opacity="0.4" fill-opacity="0.4" transform="translate(524 446) rotate(0 0.9331728119015565 27.314442448318005)"><path d="M0.56 1.18 C0.61 9.99, 1.39 44.47, 1.3 53.45" stroke="#000000" stroke-width="1.5" fill="none" stroke-dasharray="1.5 7"></path></g></g><g stroke-opacity="0.4" fill-opacity="0.4" stroke-linecap="round" transform="translate(386 515) rotate(0 144.5 25.5)"><path d="M12.75 0 M12.75 0 C67.67 -0.51, 122.45 -1.62, 276.25 0 M12.75 0 C108.92 0.22, 205.38 0.38, 276.25 0 M276.25 0 C284.42 -1.06, 287.84 5.01, 289 12.75 M276.25 0 C284.06 -1, 290.28 3.34, 289 12.75 M289 12.75 C289.99 20.5, 289.19 29.88, 289 38.25 M289 12.75 C287.93 18.98, 289.35 27.04, 289 38.25 M289 38.25 C289.62 45.66, 286.02 52.12, 276.25 51 M289 38.25 C286.94 48.02, 283.17 51.28, 276.25 51 M276.25 51 C174.63 51.19, 73.61 49.31, 12.75 51 M276.25 51 C207.62 50.02, 139.85 49.22, 12.75 51 M12.75 51 C4.87 52.98, 0.26 46.68, 0 38.25 M12.75 51 C4.15 50.96, 0.48 48.36, 0 38.25 M0 38.25 C-1.76 26.92, -0.08 20.41, 0 12.75 M0 38.25 C0.73 31.22, 0.59 24.74, 0 12.75 M0 12.75 C-0.11 2.95, 4.9 1.78, 12.75 0 M0 12.75 C-1.5 6.04, 2.84 1.22, 12.75 0" stroke="#000000" stroke-width="1" fill="none"></path></g><g stroke-opacity="0.4" fill-opacity="0.4" stroke-linecap="round" transform="translate(384 583) rotate(0 143 22)"><path d="M11 0 M11 0 C88.39 2.92, 169.67 0.93, 275 0 M11 0 C68.24 -0.45, 127.14 -1.86, 275 0 M275 0 C280.4 -1.89, 287.36 3.24, 286 11 M275 0 C283.22 -1.86, 285.58 4.8, 286 11 M286 11 C287.47 17.69, 284.92 27.81, 286 33 M286 11 C285.62 17.1, 285.86 23.53, 286 33 M286 33 C285.29 38.76, 281.38 44.95, 275 44 M286 33 C285.09 40.29, 284.13 46.11, 275 44 M275 44 C175.33 42.66, 76.86 44.07, 11 44 M275 44 C210.51 44.24, 146.71 43.14, 11 44 M11 44 C3.38 44.62, 0.64 40.14, 0 33 M11 44 C1.46 45.07, -2.27 40.93, 0 33 M0 33 C-1.2 23.41, 0.7 15.07, 0 11 M0 33 C0.57 25.37, 0.45 20.59, 0 11 M0 11 C-2 1.97, 2.75 -1.15, 11 0 M0 11 C-0.17 5.78, 3.96 0.24, 11 0" stroke="#000000" stroke-width="1" fill="none"></path></g><g stroke-opacity="0.4" fill-opacity="0.4" transform="translate(476 527) rotate(0 52.5 12.5)"><text x="0" y="18" font-family="Virgil, Segoe UI Emoji" font-size="20px" fill="#000000" text-anchor="start" style="white-space: pre;" direction="ltr">Cluster n-1</text></g><g stroke-opacity="0.4" fill-opacity="0.4" transform="translate(482 590) rotate(0 46 12.5)"><text x="0" y="18" font-family="Virgil, Segoe UI Emoji" font-size="20px" fill="#000000" text-anchor="start" style="white-space: pre;" direction="ltr">Cluster n</text></g><g stroke-opacity="0.4" fill-opacity="0.4" transform="translate(485 321) rotate(0 44 12.5)"><text x="0" y="18" font-family="Virgil, Segoe UI Emoji" font-size="20px" fill="#000000" text-anchor="start" style="white-space: pre;" direction="ltr">Cluster 1</text></g><g stroke-opacity="0.4" fill-opacity="0.4" stroke-linecap="round" transform="translate(382 371) rotate(0 51.5 27.5)"><path d="M13.75 0 M13.75 0 C38.67 -1.23, 60.01 0.05, 89.25 0 M13.75 0 C37.4 0.53, 62.12 -0.9, 89.25 0 M89.25 0 C97.03 -0.35, 103.65 6.13, 103 13.75 M89.25 0 C98.02 1.2, 102.5 3.7, 103 13.75 M103 13.75 C102.29 19.86, 104.61 29.93, 103 41.25 M103 13.75 C102.96 20.31, 102.9 28.31, 103 41.25 M103 41.25 C104.29 51.46, 98 53.25, 89.25 55 M103 41.25 C103.17 51.87, 100.26 55.15, 89.25 55 M89.25 55 C64.42 55.6, 41.35 53.38, 13.75 55 M89.25 55 C60.79 55.3, 34.43 54.63, 13.75 55 M13.75 55 C6.38 56.15, -1 49.43, 0 41.25 M13.75 55 C4.98 52.95, 1.55 49.84, 0 41.25 M0 41.25 C-0.72 34.25, 1.93 29.26, 0 13.75 M0 41.25 C-0.37 35.73, -1.17 28.06, 0 13.75 M0 13.75 C-0.92 2.76, 4.3 -1.18, 13.75 0 M0 13.75 C-0.41 3.32, 6.38 -0.44, 13.75 0" stroke="#000000" stroke-width="1" fill="none"></path></g><g stroke-opacity="0.4" fill-opacity="0.4" transform="translate(398 388) rotate(0 35.5 12.5)"><text x="0" y="18" font-family="Virgil, Segoe UI Emoji" font-size="20px" fill="#000000" text-anchor="start" style="white-space: pre;" direction="ltr">Agent 1</text></g><g stroke-opacity="0.4" fill-opacity="0.4" stroke-linecap="round" transform="translate(636.5 370.5) rotate(0 23 27.5)"><path d="M11.5 0 M11.5 0 C19.77 1.52, 24.96 -0.4, 34.5 0 M11.5 0 C18.54 1.03, 24.58 -0.16, 34.5 0 M34.5 0 C41.99 -0.92, 46.45 1.94, 46 11.5 M34.5 0 C42.03 1.38, 45.36 4.03, 46 11.5 M46 11.5 C44.42 22.66, 46.07 30.88, 46 43.5 M46 11.5 C46.27 18.94, 46.12 25.03, 46 43.5 M46 43.5 C47.06 52.05, 41.24 56.02, 34.5 55 M46 43.5 C47.35 51.71, 40.92 54.12, 34.5 55 M34.5 55 C24.77 56.2, 17.22 53.92, 11.5 55 M34.5 55 C29.49 55.97, 24.94 54.5, 11.5 55 M11.5 55 C5.64 55.73, -0.75 51.78, 0 43.5 M11.5 55 C2.85 55.15, 1.15 53.09, 0 43.5 M0 43.5 C1.52 36.31, -1.33 28.89, 0 11.5 M0 43.5 C-0.7 33.98, 0.08 25.24, 0 11.5 M0 11.5 C0.18 4.75, 2.96 -1.47, 11.5 0 M0 11.5 C-0.92 6.02, 5.7 -2.2, 11.5 0" stroke="#000000" stroke-width="1" fill="none"></path></g><g stroke-opacity="0.4" fill-opacity="0.4" stroke-linecap="round" transform="translate(581 369.5) rotate(0 23 27.5)"><path d="M11.5 0 M11.5 0 C18.77 -1.88, 27.36 -1.4, 34.5 0 M11.5 0 C18.94 -0.8, 29.08 -0.63, 34.5 0 M34.5 0 C40.51 0.28, 45.34 3.23, 46 11.5 M34.5 0 C40.69 0.81, 44.58 3.04, 46 11.5 M46 11.5 C47.97 16.82, 46.29 25.43, 46 43.5 M46 11.5 C45.62 21.84, 45.94 29.92, 46 43.5 M46 43.5 C47.22 50.02, 42.9 56.53, 34.5 55 M46 43.5 C44.13 51.48, 43.14 56.62, 34.5 55 M34.5 55 C24.84 53.49, 15.71 53.92, 11.5 55 M34.5 55 C29.04 54.27, 22.46 55.2, 11.5 55 M11.5 55 C5.77 53.46, 1.76 51.43, 0 43.5 M11.5 55 C3 55.1, -0.18 52.58, 0 43.5 M0 43.5 C-1.99 37.36, 0.92 27.09, 0 11.5 M0 43.5 C-0.56 34.87, 0.47 27.7, 0 11.5 M0 11.5 C0.83 2.88, 4.21 0.58, 11.5 0 M0 11.5 C1.98 5.46, 2.86 -0.53, 11.5 0" stroke="#000000" stroke-width="1" fill="none"></path></g><g stroke-opacity="0.4" fill-opacity="0.4" transform="translate(584.5 381.49999999999994) rotate(0 19.666666666666686 18.00000000000003)"><text x="0" y="13.000000000000014" font-family="Virgil, Segoe UI Emoji" font-size="14.400000000000011px" fill="#000000" text-anchor="start" style="white-space: pre;" direction="ltr">Agent</text><text x="0" y="31.00000000000003" font-family="Virgil, Segoe UI Emoji" font-size="14.400000000000011px" fill="#000000" text-anchor="start" style="white-space: pre;" direction="ltr"> n-1</text></g><g stroke-opacity="0.4" fill-opacity="0.4" transform="translate(640.3333333333333 382.00000000000006) rotate(0 19.5 18)"><text x="19.5" y="13" font-family="Virgil, Segoe UI Emoji" font-size="14.400000000000011px" fill="#000000" text-anchor="middle" style="white-space: pre;" direction="ltr">Agent</text><text x="19.5" y="31" font-family="Virgil, Segoe UI Emoji" font-size="14.400000000000011px" fill="#000000" text-anchor="middle" style="white-space: pre;" direction="ltr">n</text></g><g stroke-linecap="round"><g stroke-opacity="0.4" fill-opacity="0.4" transform="translate(491 397) rotate(0 41.88492112606764 -1.0723235890269223)"><path d="M-0.98 -0.83 C13.12 -0.99, 70.49 -1.16, 84.75 -1.31" stroke="#000000" stroke-width="1.5" fill="none" stroke-dasharray="1.5 7"></path></g></g><g stroke-opacity="0.4" fill-opacity="0.4" stroke-linecap="round" transform="translate(885 580) rotate(0 118 70.5)"><path d="M35.25 0 M35.25 0 C76.02 -3.45, 115.7 -1.74, 200.75 0 M35.25 0 C75.47 -0.61, 114.08 0, 200.75 0 M200.75 0 C224.38 1.84, 234.81 10, 236 35.25 M200.75 0 C225.85 1.26, 236.24 9.69, 236 35.25 M236 35.25 C235.49 50.72, 238.42 67.82, 236 105.75 M236 35.25 C234.92 60.52, 236.81 85.72, 236 105.75 M236 105.75 C236.27 129.1, 223.62 141.84, 200.75 141 M236 105.75 C233.85 129.7, 225.19 138.74, 200.75 141 M200.75 141 C141.74 138.74, 80.05 141.22, 35.25 141 M200.75 141 C156.69 141.4, 111.18 141.37, 35.25 141 M35.25 141 C13.33 140.55, -0.44 130.03, 0 105.75 M35.25 141 C10.94 138.98, -0.94 130.35, 0 105.75 M0 105.75 C-1.18 79.03, 0.31 48.47, 0 35.25 M0 105.75 C-0.61 87.6, -0.38 70.26, 0 35.25 M0 35.25 C1.28 12, 13.48 -1.12, 35.25 0 M0 35.25 C1.21 12.06, 9.55 0.71, 35.25 0" stroke="#000000" stroke-width="1" fill="none"></path></g><g stroke-opacity="0.4" fill-opacity="0.4" stroke-linecap="round" transform="translate(1190 580) rotate(0 53 68.5)"><path d="M26.5 0 M26.5 0 C41.65 1.39, 51.99 0.58, 79.5 0 M26.5 0 C43.1 -0.77, 58.05 -0.38, 79.5 0 M79.5 0 C98.22 1.42, 107.15 7.6, 106 26.5 M79.5 0 C95.05 -0.19, 106.4 8.27, 106 26.5 M106 26.5 C106.14 56.17, 107.03 84.71, 106 110.5 M106 26.5 C105.55 48.79, 105.54 72.7, 106 110.5 M106 110.5 C107.67 129.62, 96.94 136.89, 79.5 137 M106 110.5 C105.84 130.3, 97.31 136.93, 79.5 137 M79.5 137 C67.78 138.65, 55.13 135.1, 26.5 137 M79.5 137 C66.99 136.6, 54.56 136.77, 26.5 137 M26.5 137 C7.9 138.59, -1.92 127.5, 0 110.5 M26.5 137 C9.37 136.98, 0.67 127.69, 0 110.5 M0 110.5 C-0.69 91.37, 1.23 69.43, 0 26.5 M0 110.5 C-0.51 77.71, 0.43 45.28, 0 26.5 M0 26.5 C1.28 8.17, 8.05 -1.88, 26.5 0 M0 26.5 C-1.18 6.54, 10.34 0.3, 26.5 0" stroke="#000000" stroke-width="1" fill="none"></path></g><g stroke-linecap="round"><g stroke-opacity="0.4" fill-opacity="0.4" transform="translate(1126 644) rotate(0 29.058713980019093 -0.7521990435719772)"><path d="M1.17 -0.88 C10.69 -1.14, 47.67 -0.59, 56.95 -0.55" stroke="#000000" stroke-width="1.5" fill="none" stroke-dasharray="1.5 7"></path></g></g><g stroke-opacity="0.4" fill-opacity="0.4" transform="translate(1194 556) rotate(0 46 12.5)"><text x="46" y="18" font-family="Virgil, Segoe UI Emoji" font-size="20px" fill="#000000" text-anchor="middle" style="white-space: pre;" direction="ltr">Cluster n</text></g><g stroke-opacity="0.4" fill-opacity="0.4" transform="translate(951 551) rotate(0 44 12.5)"><text x="44" y="18" font-family="Virgil, Segoe UI Emoji" font-size="20px" fill="#000000" text-anchor="middle" style="white-space: pre;" direction="ltr">Cluster 1</text></g><g stroke-opacity="0.4" fill-opacity="0.4" stroke-linecap="round" transform="translate(889 621) rotate(0 50 30)"><path d="M0.85 -0.91 C34.1 -0.28, 69.69 1, 98.49 -1.07 M0.07 -0.1 C21.56 0.09, 43.52 -0.05, 99.25 -0.22 M98.81 0.63 C101.75 24.19, 98.62 44.42, 101.25 59.35 M100.52 0.6 C99.06 22.33, 100.31 45.72, 100.32 59.7 M99.61 61.64 C69.04 60.36, 36.86 58.94, -1.7 61.55 M99.42 59.54 C73.84 60.48, 49.21 60.08, 0.91 60.7 M0.97 58.7 C-0.92 41.13, -0.25 18.7, -1.61 -1.06 M-0.11 60.01 C1.35 43.24, -0.36 26.33, 0.91 0.34" stroke="#364fc7" stroke-width="1" fill="none"></path></g><g stroke-opacity="0.4" fill-opacity="0.4" transform="translate(894 638.5) rotate(0 45 12.5)"><text x="45" y="18" font-family="Virgil, Segoe UI Emoji" font-size="20px" fill="#364fc7" text-anchor="middle" style="white-space: pre;" direction="ltr">Infraenv</text></g><g stroke-opacity="0.4" fill-opacity="0.4" stroke-linecap="round" transform="translate(893 585) rotate(0 98 17.5)"><path d="M-1.15 -0.03 C47.86 2.27, 94.29 0.25, 195.23 1.61 M-0.77 0.32 C42.45 -0.54, 86.87 -1.08, 195.84 -0.33 M195.61 -1.91 C194.29 8.51, 194.85 21.18, 196.43 33.05 M195.57 0.04 C196.73 10.07, 197.16 18.46, 196.76 34.36 M194.5 34.73 C134.3 36.38, 70.46 32.81, 1.64 35.89 M195.88 34.07 C123.64 34.9, 52.64 35.69, -0.03 35.44 M-1.84 34.55 C-0.94 24.63, 0.96 18.55, -1.43 -0.4 M-0.73 34.19 C0.35 22.08, -0.61 7.97, 0.4 -0.08" stroke="#364fc7" stroke-width="1" fill="none"></path></g><g stroke-opacity="0.4" fill-opacity="0.4" transform="translate(898 590) rotate(0 93 12.5)"><text x="93" y="18" font-family="Virgil, Segoe UI Emoji" font-size="20px" fill="#364fc7" text-anchor="middle" style="white-space: pre;" direction="ltr">ClusterDeployment</text></g><g stroke-opacity="0.4" fill-opacity="0.4" stroke-linecap="round" transform="translate(889 683) rotate(0 101.5 17.5)"><path d="M0.33 -0.37 C64.57 0.49, 125.04 0.16, 201.32 -1.63 M-0.31 -0.24 C77.23 -0.48, 152 -0.47, 203.17 0.06 M203.53 1.47 C204.77 11.85, 204.55 20.42, 203.4 33.8 M203.96 0.84 C203.76 11.54, 204.18 20.73, 202.01 34.93 M201.87 35.9 C124.74 36.45, 44.64 34.06, -1.51 33.92 M203.89 34.56 C137.51 36.13, 72.6 35.83, -0.6 34.68 M1.91 34.55 C-2.21 26.12, 0.03 17.34, -0.65 1.06 M0.93 35.39 C0.4 28.41, -0.28 21.07, 0.71 -0.6" stroke="#364fc7" stroke-width="1" fill="none"></path></g><g stroke-opacity="0.4" fill-opacity="0.4" transform="translate(894 688) rotate(0 96.5 12.5)"><text x="96.5" y="18" font-family="Virgil, Segoe UI Emoji" font-size="20px" fill="#364fc7" text-anchor="middle" style="white-space: pre;" direction="ltr">AgentClusterInstall</text></g><g stroke-opacity="0.4" fill-opacity="0.4" stroke-linecap="round" transform="translate(990 623) rotate(0 64.5 12.5)"><path d="M-0.06 -1.27 C44.42 -0.88, 86.89 -0.2, 130.67 0.52 M0.13 -0.18 C31.32 -1.68, 61.06 -1.64, 128.47 -0.45 M127.32 -0.09 C127.35 6.58, 127.28 13.35, 130.81 24.44 M128.63 -0.37 C129.26 7.93, 129.42 16.2, 129.05 25.04 M128.15 24.88 C88.87 25.08, 45.96 23.42, -0.35 26.31 M129.49 24.4 C88.8 23.77, 49.84 24.99, -0.9 24.47 M-1.62 26.61 C0.85 16.79, -1.39 9.96, 0.43 -0.33 M-0.87 24.78 C-0.83 17.7, -0.07 10.71, 0.69 -0.1" stroke="#364fc7" stroke-width="1" fill="none"></path></g><g stroke-opacity="0.4" fill-opacity="0.4" transform="translate(993.5 627) rotate(0 59.5 10)"><text x="59.5" y="14" font-family="Virgil, Segoe UI Emoji" font-size="16px" fill="#364fc7" text-anchor="middle" style="white-space: pre;" direction="ltr">BareMetalHost</text></g><g stroke-opacity="0.4" fill-opacity="0.4" stroke-linecap="round" transform="translate(990 653) rotate(0 31 13.5)"><path d="M1.07 -0.68 C15.34 -2.04, 33.48 -0.98, 61.75 0.75 M-0.02 0.9 C24.47 0.55, 47.09 -0.22, 62.23 0.75 M63.55 -0.22 C62.74 6.89, 60.46 10.48, 60.44 25.94 M62.12 -0.18 C62.75 8.44, 61.19 14.56, 61.49 27.32 M60.04 28.57 C45 28.53, 24.68 27.96, 1.46 26.2 M62.24 27.76 C47.09 27.39, 31.08 27.66, -0.23 26.07 M-1.17 27.45 C1.43 16.39, -0.76 5.8, -0.84 1.33 M-0.51 27.55 C0.25 21.63, 0.17 15.86, -0.15 0.13" stroke="#364fc7" stroke-width="1" fill="none"></path></g><g stroke-opacity="0.4" fill-opacity="0.4" transform="translate(995 659) rotate(0 26 10)"><text x="26" y="14" font-family="Virgil, Segoe UI Emoji" font-size="16px" fill="#364fc7" text-anchor="middle" style="white-space: pre;" direction="ltr">Secret</text></g><g stroke-opacity="0.4" fill-opacity="0.4" transform="translate(1061 656) rotate(0 26 10)"><text x="26" y="14" font-family="Virgil, Segoe UI Emoji" font-size="16px" fill="#364fc7" text-anchor="middle" style="white-space: pre;" direction="ltr">Secret</text></g><g stroke-opacity="0.4" fill-opacity="0.4" stroke-linecap="round" transform="translate(1054 652.5) rotate(0 31 13.5)"><path d="M0.63 0.61 C12.93 -1.2, 28.23 0.85, 62.21 -1.37 M0.66 0.16 C21.76 1.17, 43.85 -0.04, 61.87 0.73 M61.33 -1.08 C62.73 10.28, 63.15 17.77, 60.91 25.07 M62.88 0.07 C61.72 6.59, 62.73 14.78, 61.9 26.61 M61.4 27.04 C40.33 26.63, 20.26 25, 0.76 27.68 M62.57 26.69 C43.57 27.27, 25.2 26.86, 0.34 26.96 M1.44 26.04 C0.99 18.58, 1.43 5.05, -0.83 0.59 M-0.07 26.52 C-0.39 19.75, -0.2 13.07, -0.68 -0.59" stroke="#364fc7" stroke-width="1" fill="none"></path></g><g stroke-opacity="0.4" fill-opacity="0.4" stroke-linecap="round" transform="translate(49 304) rotate(0 130 152)"><path d="M-0.82 -1.6 C87.34 2.84, 172.09 1.85, 261.03 -0.7 M0.55 -0.35 C84.56 -1.48, 169.91 -1.74, 259.29 0.1 M261.32 -0.16 C260.8 105.63, 261.5 209.78, 258.9 302.9 M260.15 0.01 C260.45 81.71, 261.22 164.53, 260.53 303.89 M258.97 305.36 C171.23 304.58, 79.54 303.89, -0.08 303.6 M259.32 304.39 C177.54 305.24, 95.23 305.18, -0.56 303.94 M-0.21 303.53 C-1.82 231.51, -0.91 158.06, 1.4 1.13 M-0.24 304.7 C1.13 227.6, 1.07 149.88, 0.39 0.55" stroke="#e67700" stroke-width="1" fill="none"></path></g><g stroke-opacity="0.4" fill-opacity="0.4" transform="translate(33 279) rotate(0 146 10)"><text x="146" y="14" font-family="Virgil, Segoe UI Emoji" font-size="16px" fill="#e67700" text-anchor="middle" style="white-space: pre;" direction="ltr">Shared Podman AdditionalImageStore</text></g><g stroke-opacity="0.4" fill-opacity="0.4" stroke-linecap="round" transform="translate(218 314) rotate(0 42 34)"><path d="M-1.94 -1.9 C32.76 0.88, 64.53 -1.56, 85.34 1.31 M-0.99 -0.43 C27.32 0.08, 53.69 0.55, 84.6 -0.78 M83.56 -0.47 C82.74 23.25, 83.22 46.6, 85.93 67.52 M83.46 0.15 C83.12 15.37, 83.03 30.73, 84.53 68.89 M85.4 67.22 C61.17 68.37, 35.89 67.7, -0.13 66.41 M84.88 67.39 C52.07 67.4, 20.75 67.62, -0.34 67.08 M-0.7 68.42 C0.42 50.39, 1.36 35.38, 0.15 -0.24 M-0.17 67.81 C0.15 49.83, -1.28 31.86, 0.19 -0.27" stroke="#e67700" stroke-width="1" fill="none"></path></g><g stroke-opacity="0.4" fill-opacity="0.4" transform="translate(223 328) rotate(0 37 20)"><text x="37" y="14" font-family="Virgil, Segoe UI Emoji" font-size="16px" fill="#e67700" text-anchor="middle" style="white-space: pre;" direction="ltr">Agent </text><text x="37" y="34" font-family="Virgil, Segoe UI Emoji" font-size="16px" fill="#e67700" text-anchor="middle" style="white-space: pre;" direction="ltr">Image</text></g><g stroke-opacity="0.4" fill-opacity="0.4" stroke-linecap="round" transform="translate(208 404) rotate(0 46 36.5)"><path d="M-0.34 -0.38 C25.95 0.68, 47.78 1.22, 92.39 -0.54 M0.02 0.04 C33.25 0.06, 68.51 -0.03, 91.82 -0.81 M90.2 0.51 C93.85 27.77, 94.19 56.11, 92.46 71.87 M92.17 -0.88 C91.56 24.62, 93.12 51.98, 92.9 72.67 M92.75 71.48 C59.8 72.14, 29.93 72.79, 0.7 74.74 M92.72 72.55 C61.42 72.78, 29.31 72.87, -0.25 72.59 M1.67 73.68 C0.83 54.04, 0.98 35.78, 0.56 0.28 M0.02 73.22 C-0.25 44.98, 0.16 16.58, 0.84 -0.37" stroke="#e67700" stroke-width="1" fill="none"></path></g><g stroke-opacity="0.4" fill-opacity="0.4" transform="translate(213 420.5) rotate(0 41 20)"><text x="41" y="14" font-family="Virgil, Segoe UI Emoji" font-size="16px" fill="#e67700" text-anchor="middle" style="white-space: pre;" direction="ltr">Controller</text><text x="41" y="34" font-family="Virgil, Segoe UI Emoji" font-size="16px" fill="#e67700" text-anchor="middle" style="white-space: pre;" direction="ltr">Image</text></g><g stroke-opacity="0.4" fill-opacity="0.4" stroke-linecap="round" transform="translate(96 321) rotate(0 51.5 40)"><path d="M-0.49 1.01 C29.84 0.95, 57.67 0.38, 103.92 -1.78 M-0.95 -0.35 C29.78 -0.05, 59.5 -0.56, 103.14 0.53 M104.94 1.56 C104.01 18.33, 104.16 35.41, 101.33 78.47 M102.19 -0.97 C103.9 27.92, 102.33 53.93, 103.89 79.75 M104.87 78.46 C67.12 81.25, 34.47 82.08, -0.19 80.42 M103.49 79.8 C74.65 78.83, 45.06 80.03, -0.5 79.39 M-1.85 80.78 C0.89 50.63, 0.63 24.31, 1.01 -1.54 M-0.89 80.81 C0.52 62.43, 0.07 44.43, 0.43 -0.02" stroke="#e67700" stroke-width="1" fill="none"></path></g><g stroke-opacity="0.4" fill-opacity="0.4" transform="translate(118.5 330) rotate(0 34.5 30)"><text x="34.5" y="14" font-family="Virgil, Segoe UI Emoji" font-size="16px" fill="#e67700" text-anchor="middle" style="white-space: pre;" direction="ltr">Assisted</text><text x="34.5" y="34" font-family="Virgil, Segoe UI Emoji" font-size="16px" fill="#e67700" text-anchor="middle" style="white-space: pre;" direction="ltr">Installer</text><text x="34.5" y="54" font-family="Virgil, Segoe UI Emoji" font-size="16px" fill="#e67700" text-anchor="middle" style="white-space: pre;" direction="ltr">Image</text></g><g stroke-opacity="0.4" fill-opacity="0.4" transform="translate(52.99999999999997 409) rotate(0 78.00000000000001 94.5)"><text x="78" y="15" font-family="Virgil, Segoe UI Emoji" font-size="16.799999999999994px" fill="#e67700" text-anchor="middle" style="white-space: pre;" direction="ltr">Shared by all</text><text x="78" y="36" font-family="Virgil, Segoe UI Emoji" font-size="16.799999999999994px" fill="#e67700" text-anchor="middle" style="white-space: pre;" direction="ltr"> swarm clusters,</text><text x="78" y="57" font-family="Virgil, Segoe UI Emoji" font-size="16.799999999999994px" fill="#e67700" text-anchor="middle" style="white-space: pre;" direction="ltr">All use the</text><text x="78" y="78" font-family="Virgil, Segoe UI Emoji" font-size="16.799999999999994px" fill="#e67700" text-anchor="middle" style="white-space: pre;" direction="ltr"> same images,</text><text x="78" y="99" font-family="Virgil, Segoe UI Emoji" font-size="16.799999999999994px" fill="#e67700" text-anchor="middle" style="white-space: pre;" direction="ltr">pre-pulled by</text><text x="78" y="120" font-family="Virgil, Segoe UI Emoji" font-size="16.799999999999994px" fill="#e67700" text-anchor="middle" style="white-space: pre;" direction="ltr">the swarm</text><text x="78" y="141" font-family="Virgil, Segoe UI Emoji" font-size="16.799999999999994px" fill="#e67700" text-anchor="middle" style="white-space: pre;" direction="ltr">before lawunching</text><text x="78" y="162" font-family="Virgil, Segoe UI Emoji" font-size="16.799999999999994px" fill="#e67700" text-anchor="middle" style="white-space: pre;" direction="ltr">the cluster agents</text><text x="78" y="183" font-family="Virgil, Segoe UI Emoji" font-size="16.799999999999994px" fill="#e67700" text-anchor="middle" style="white-space: pre;" direction="ltr">and controllers</text></g><g stroke-opacity="0.4" fill-opacity="0.4" stroke-linecap="round" transform="translate(52 632) rotate(0 125.5 22)"><path d="M-1.11 -1.13 C100.02 1.74, 200 0.83, 249.61 -1.23 M0.75 0.28 C74.52 -1.17, 148.99 -1.16, 250.68 0.22 M249.22 -0.34 C252.43 10.37, 249.88 18.8, 249.76 45.93 M251.47 0.61 C250.72 15.12, 251.11 28.16, 250.31 44.27 M250.18 42.79 C172.9 45.3, 95.6 44.59, 0.94 45.49 M250.71 43.77 C175.19 41.72, 98.48 41.85, 0.81 44.68 M-1.59 44.66 C-1.57 33.37, -1.4 23.72, 0.21 -1.77 M0.1 43.05 C-0.23 25.73, 0.05 8.55, -0.03 0.78" stroke="#e67700" stroke-width="1" fill="none"></path></g><g stroke-opacity="0.4" fill-opacity="0.4" transform="translate(57 644) rotate(0 120.5 10)"><text x="120.5" y="14" font-family="Virgil, Segoe UI Emoji" font-size="16px" fill="#e67700" text-anchor="middle" style="white-space: pre;" direction="ltr">Cluster 1 Agent 1 Graphroot</text></g><g stroke-opacity="0.4" fill-opacity="0.4" stroke-linecap="round" transform="translate(50.5 732) rotate(0 125.5 22)"><path d="M-0.21 -0.32 C93.79 -0.61, 187.77 -0.43, 252.39 -1.48 M-0.21 0.16 C94.97 -2.21, 189.38 -2.16, 251.11 0.35 M249.74 1.36 C251.38 11.86, 251.36 21.63, 250.25 42.52 M250.12 0.48 C251.39 15.1, 250.62 30.96, 251.7 43.57 M250.51 43.9 C198.16 42.83, 147.77 42.21, 0.87 42.84 M251.18 44.32 C151.28 45.5, 52.84 46.26, -0.3 43.71 M1.03 44.36 C0.42 29.42, 0 17.17, 1.52 -1.4 M-0.61 43.29 C0.19 26.61, 0.72 10.6, 0.42 0.79" stroke="#e67700" stroke-width="1" fill="none"></path></g><g stroke-opacity="0.4" fill-opacity="0.4" transform="translate(55.5 744) rotate(0 120.5 10)"><text x="120.5" y="14" font-family="Virgil, Segoe UI Emoji" font-size="16px" fill="#e67700" text-anchor="middle" style="white-space: pre;" direction="ltr">Cluster n Agent n Graphroot</text></g><g stroke-linecap="round"><g stroke-opacity="0.4" fill-opacity="0.4" transform="translate(180 680) rotate(0 -0.8557375691533196 21.34561645537616)"><path d="M-1.12 -0.96 C-1.38 6.25, -0.45 36, -0.55 43.65" stroke="#e67700" stroke-width="1.5" fill="none" stroke-dasharray="1.5 7"></path></g></g><g stroke-opacity="0.4" fill-opacity="0.4" stroke-linecap="round" transform="translate(10 803) rotate(0 520.5 77.5)"><path d="M1.16 -0.08 C285.44 5.08, 572.06 3.84, 1041.79 -0.62 M-0.59 -0.32 C397.66 7, 795.11 6.35, 1041.27 -0.04 M1043.73 -3.73 C1035.64 58.21, 1040.76 118.74, 1037.01 157.22 M1040.1 1.87 C1038.2 48.53, 1038.93 92.85, 1042.41 154.94 M1042.14 156.07 C813.19 163.55, 581.42 162.1, -0.4 155.42 M1041.37 154.73 C702.04 153.07, 361.96 152.46, 0.4 154.94 M-2.18 156.28 C0.32 113.63, 0.38 71, -1.88 0.31 M0 155.25 C1.1 122.15, 2.1 88.12, -0.22 -1.92" stroke="#e67700" stroke-width="1" fill="none"></path></g><g stroke-opacity="0.4" fill-opacity="0.4" stroke-linecap="round" transform="translate(34 625) rotate(0 142 80)"><path d="M40 0 M40 0 C105.62 -6.07, 172.08 -4.38, 244 0 M40 0 C86.91 0.06, 133.56 1.73, 244 0 M244 0 C273.61 2.52, 284.64 17.25, 284 40 M244 0 C271.28 -2.71, 283.99 13.23, 284 40 M284 40 C284.78 68.11, 282.94 97.58, 284 120 M284 40 C283.89 57.29, 282.23 72.47, 284 120 M284 120 C285.19 144.68, 266.78 157.11, 244 160 M284 120 C282.86 147.01, 270.18 158.49, 244 160 M244 160 C182.23 161.83, 118.21 156, 40 160 M244 160 C179.63 156.35, 116.23 156.07, 40 160 M40 160 C16.87 157.74, 0.72 143.69, 0 120 M40 160 C10.76 162.06, -3.25 143.88, 0 120 M0 120 C3.6 92.81, 0.82 55.27, 0 40 M0 120 C2.24 90.74, 0.56 59.51, 0 40 M0 40 C3.81 10.06, 12.33 -2.78, 40 0 M0 40 C-2.86 14.18, 17.04 -1.48, 40 0" stroke="#e67700" stroke-width="1" fill="none"></path></g><g stroke-opacity="0.4" fill-opacity="0.4" transform="translate(90.5 607) rotate(0 82.5 10)"><text x="82.5" y="14" font-family="Virgil, Segoe UI Emoji" font-size="16px" fill="#e67700" text-anchor="middle" style="white-space: pre;" direction="ltr">Isolated Graphroots</text></g><g stroke-linecap="round"><g stroke-opacity="0.4" fill-opacity="0.4" transform="translate(313 768) rotate(0 0.752440693601983 18.489581547677517)"><path d="M2.77 -1.5 C2.29 4.83, 0.6 31.82, -0.43 38.48 M0.83 3.86 C-0.02 9.32, -0.23 29.3, -1.27 34.27" stroke="#e67700" stroke-width="1" fill="none"></path></g><g stroke-opacity="0.4" fill-opacity="0.4" transform="translate(313 768) rotate(0 0.752440693601983 18.489581547677517)"><path d="M-7.88 19.7 C-2.08 22.67, -0.34 29.68, -4.5 34.23 M-4.93 15.9 C-5.72 20.91, -1.49 28.29, -0.11 34.16" stroke="#e67700" stroke-width="1" fill="none"></path></g><g stroke-opacity="0.4" fill-opacity="0.4" transform="translate(313 768) rotate(0 0.752440693601983 18.489581547677517)"><path d="M4.76 20.93 C5.64 23.67, 2.47 30.2, -4.5 34.23 M7.71 17.13 C2.45 21.5, 2.21 28.45, -0.11 34.16" stroke="#e67700" stroke-width="1" fill="none"></path></g></g><g stroke-opacity="0.4" fill-opacity="0.4" transform="translate(20 813) rotate(0 505.04166666666606 68)"><text x="0" y="15.666666666666654" font-family="Virgil, Segoe UI Emoji" font-size="17.944444444444414px" fill="#e67700" text-anchor="start" style="white-space: pre;" direction="ltr">Each agent needs to run multiple containers to function, and these containers cannot co-exist under the same</text><text x="0" y="38.33333333333331" font-family="Virgil, Segoe UI Emoji" font-size="17.944444444444414px" fill="#e67700" text-anchor="start" style="white-space: pre;" direction="ltr">Podman graphroot. A separate graphroot is made for each agent in the swarm to ensure that the container</text><text x="0" y="60.99999999999996" font-family="Virgil, Segoe UI Emoji" font-size="17.944444444444414px" fill="#e67700" text-anchor="start" style="white-space: pre;" direction="ltr">names don't clash. However, all agent Podman configurations make use of the shared image store as</text><text x="0" y="83.66666666666661" font-family="Virgil, Segoe UI Emoji" font-size="17.944444444444414px" fill="#e67700" text-anchor="start" style="white-space: pre;" direction="ltr">an AdditionalImageStore, to avoid repeatedly pulling the same images. The shared image store, along with all the</text><text x="0" y="106.33333333333327" font-family="Virgil, Segoe UI Emoji" font-size="17.944444444444414px" fill="#e67700" text-anchor="start" style="white-space: pre;" direction="ltr">different graphroots for each agent are all stored in a tmpfs on the RAM - otherwise performance would be</text><text x="0" y="128.99999999999991" font-family="Virgil, Segoe UI Emoji" font-size="17.944444444444414px" fill="#e67700" text-anchor="start" style="white-space: pre;" direction="ltr">too slow and would limit the number of agents that can run on the same swarm machine</text></g><g stroke-linecap="round"><g stroke-opacity="0.4" fill-opacity="0.4" transform="translate(354 476) rotate(0 -23.075026070922632 -1.1428153317517058)"><path d="M-2.18 -2.75 C-9.58 -3.86, -38.34 -4.14, -46.19 -4.29 M1.83 1.93 C-5.7 2.51, -40.4 -0.44, -47.98 -0.82" stroke="#e67700" stroke-width="1" fill="none"></path></g><g stroke-opacity="0.4" fill-opacity="0.4" transform="translate(354 476) rotate(0 -23.075026070922632 -1.1428153317517058)"><path d="M-29.24 -6.19 C-30.97 -9.42, -35.42 -4.77, -46.15 -0.8 M-26.89 -6.83 C-30.77 -6.47, -39.78 -1.79, -48.51 0.24" stroke="#e67700" stroke-width="1" fill="none"></path></g><g stroke-opacity="0.4" fill-opacity="0.4" transform="translate(354 476) rotate(0 -23.075026070922632 -1.1428153317517058)"><path d="M-30.35 9.91 C-32.09 2.89, -36.28 3.75, -46.15 -0.8 M-28 9.27 C-31.52 4.92, -40.2 4.89, -48.51 0.24" stroke="#e67700" stroke-width="1" fill="none"></path></g></g><g stroke-opacity="0.4" fill-opacity="0.4" stroke-linecap="round" transform="translate(1199 589) rotate(0 47 13)"><path d="M-3.06 -1.27 C20.48 -0.41, 36.71 0.62, 94.77 3.55 M-0.42 0.02 C29.34 0.8, 58.56 -0.37, 94.04 -0.55 M93.21 -1.1 C93.55 8.92, 97.17 14.57, 95.82 28.56 M95.13 0.8 C94.06 10.04, 95.46 14.65, 94.07 24.05 M94.98 24.62 C66.44 23.6, 37.48 26.76, 1.1 27.99 M95.78 24.95 C66.01 27.4, 33.63 25.01, 0.47 24.41 M-2.86 22.55 C-2.06 15.85, 3.08 8.55, -3.35 1.6 M-1.13 26.3 C-1.84 21.01, -0.29 13.96, -1.65 -1.58" stroke="#364fc7" stroke-width="1" fill="none"></path></g><g stroke-opacity="0.4" fill-opacity="0.4" stroke-linecap="round" transform="translate(1195 619) rotate(0 15 16.5)"><path d="M3.91 1.44 C12.19 -2.6, 18.04 2.68, 27.01 -2.28 M-0.59 -0.72 C6.91 0.69, 15.23 1.28, 30.54 -0.12 M33 3.45 C26.29 10.65, 29 29.47, 27.67 31.28 M31.06 0.93 C31.04 6.18, 28.26 14.38, 30.83 32.6 M26.62 30.12 C18.61 34.91, 15.25 33.42, 1.17 36.26 M28.28 31.55 C21.05 34.26, 12.95 34.72, -0.61 32.46 M-2.52 29.75 C-0.88 25.14, 0.47 16.75, -1.61 -2.92 M-0.25 34.9 C-0.08 23.11, -0.66 14.24, 1.2 0.8" stroke="#364fc7" stroke-width="1" fill="none"></path></g><g stroke-opacity="0.4" fill-opacity="0.4" stroke-linecap="round" transform="translate(1227 615) rotate(0 33.5 19)"><path d="M-0.81 -1.03 C15.96 -2.81, 23.8 -3.43, 63.83 2.25 M1.63 -0.03 C24.87 0.11, 44.19 -1.84, 67.01 1.11 M65.92 -1.88 C67.93 14.35, 65.07 22.88, 66.17 38.49 M65.54 -0.54 C68.98 12.4, 66.83 25.69, 67.54 37.12 M68.6 36.33 C49.72 40.36, 29.86 41.18, 0.23 38.11 M66.69 39.58 C50.84 37.1, 33.94 38.57, 0.8 37.66 M-2.09 40.96 C1.29 29.4, -3.46 19.85, -1.17 0.6 M-0.71 37.05 C-2.4 26.75, -1.23 19.22, 0.3 -1.98" stroke="#364fc7" stroke-width="1" fill="none"></path></g><g stroke-opacity="0.4" fill-opacity="0.4" stroke-linecap="round" transform="translate(1194 660) rotate(0 36 9.5)"><path d="M-3.82 -2.09 C23.33 0.92, 39.85 -3.83, 69.29 -1.17 M-0.47 -0.71 C21.73 -2.93, 43.42 -1.77, 71.85 0.3 M71.08 0.98 C74.82 7.19, 70.7 9.16, 73.4 17.86 M70.74 -1.3 C70.49 4.11, 71.24 10.54, 72.71 17.46 M70.56 20.17 C54.88 17.41, 38.57 17, -2.8 22.47 M71.99 19.89 C48.24 19.51, 21 19.7, -1.51 20.04 M-3.17 19.04 C-1.56 11.52, -1.84 4.59, -1.5 2.09 M0.92 20.78 C0.93 11.34, 1.64 6.08, 1.05 -0.36" stroke="#364fc7" stroke-width="1" fill="none"></path></g><g stroke-opacity="0.4" fill-opacity="0.4" stroke-linecap="round" transform="translate(1270 657) rotate(0 12.5 12)"><path d="M-1.44 1.17 C4.78 -0.79, 10.37 -1.2, 22.2 3.47 M-0.01 0.89 C9.6 0.98, 15.72 1.17, 23.49 1.04 M21.67 0.05 C22.78 4.67, 22.49 9.91, 23.42 26.2 M25.97 1.87 C25.41 6.85, 26.16 16.23, 26.1 23.62 M23.94 21.39 C21.23 23.05, 8.33 23.59, 0.36 20.87 M25.85 24.73 C16.11 23.46, 4.17 24.19, 1.65 25.59 M-3.79 25.44 C4.04 18.1, 3.03 5.03, 0.97 -3.64 M1.86 22.74 C-0.94 15.48, -1.43 11.16, -0.55 1.28" stroke="#364fc7" stroke-width="1" fill="none"></path></g><g stroke-opacity="0.4" fill-opacity="0.4" stroke-linecap="round" transform="translate(1224 687) rotate(0 32.5 11.5)"><path d="M-0.76 -0.71 C25.68 -2.72, 47.47 -3.33, 68.29 -0.7 M-1.57 1.74 C14.12 1.48, 31.56 0.61, 65.78 -0.94 M68.18 2.36 C62.73 3.6, 61.16 11.82, 68.77 25.72 M63.18 0.08 C65.34 6.78, 66.66 15.72, 64.19 21.78 M67.56 25.27 C52.59 22.3, 36.52 22.12, 3.8 24.89 M66.55 23.51 C40.16 23.76, 17.27 20.54, 1.97 22.86 M-2.71 22.22 C-3.37 20.45, 2.18 12.18, -3.59 3.65 M-0.27 21.82 C-0.43 18.46, -1.61 12.45, 0.41 0.19" stroke="#364fc7" stroke-width="1" fill="none"></path></g><g stroke-opacity="0.4" fill-opacity="0.4" stroke-linecap="round" transform="translate(1194 685) rotate(0 14.5 12)"><path d="M-2.45 -2.6 C14.91 -0.86, 25.35 2.51, 31.86 -0.34 M0.95 1.11 C9.37 -1.34, 21.93 -0.05, 27.28 1.27 M28.73 -2.36 C29.48 8.03, 25.82 10.03, 25.74 26.99 M30.82 -1.23 C30.78 6.9, 28.77 15.96, 28.97 24.95 M29.37 25.35 C19.35 21.76, 19.09 26.52, 0.76 26.14 M28.16 24.59 C20.02 25.51, 10.18 24.81, 0.6 25.86 M0.45 24.67 C4.21 18.12, -1.99 6.58, 3 1.88 M1.14 24.89 C0.02 17.58, -1.01 10.87, -0.58 1.38" stroke="#364fc7" stroke-width="1" fill="none"></path></g><g stroke-linecap="round"><g stroke-opacity="0.4" fill-opacity="0.4" transform="translate(360 714) rotate(0 9.792760147154326 -134.97493671327834)"><path d="M1.09 0.41 C4.64 -45.11, 15.91 -224.5, 18.49 -270.36" stroke="#343a40" stroke-width="1.5" fill="none" stroke-dasharray="1.5 7"></path></g><g stroke-opacity="0.4" fill-opacity="0.4" transform="translate(360 714) rotate(0 9.792760147154326 -134.97493671327834)"><path d="M27.62 -238.05 C28.53 -246.48, 20.55 -252.4, 21.54 -267.02" stroke="#343a40" stroke-width="1.5" fill="none" stroke-dasharray="1.5 5"></path></g><g stroke-opacity="0.4" fill-opacity="0.4" transform="translate(360 714) rotate(0 9.792760147154326 -134.97493671327834)"><path d="M7.14 -239.28 C12.17 -247.62, 8.29 -253.3, 21.54 -267.02" stroke="#343a40" stroke-width="1.5" fill="none" stroke-dasharray="1.5 5"></path></g></g></svg>